# xmcd
#
# Track frame offsets: 
#        150
#        19404
#        32665
#        47188
#        64156
#        81378
#        107624
#        127569
#
# Disc length: 1888 seconds
#
# Revision: 0
# Processed by: cddbd v1.5.2PL0 Copyright (c) Steve Scherf et al.
# Submitted via: ExactAudioCopy v0.99pb3
#
DISCID=62075e08
DTITLE=Little Bobby - Before Te Storm
DYEAR=2005
DGENRE=blues
TTITLE0=Lord I'm Singing the Blues
TTITLE1=Worried
TTITLE2=Sticks and Stones
TTITLE3=Six String Telephone
TTITLE4=Got me a Sweet Thing
TTITLE5=Hey There Storm
TTITLE6=Been a Real Long Day
TTITLE7=Good Morning Sunshine
EXTD=
EXTT0=
EXTT1=
EXTT2=
EXTT3=
EXTT4=
EXTT5=
EXTT6=
EXTT7=
PLAYORDER=
